<svg xmlns="http://www.w3.org/2000/svg" xmlns:xlink="http://www.w3.org/1999/xlink" width="500" zoomAndPan="magnify" viewBox="0 0 375 374.999991" height="500" preserveAspectRatio="xMidYMid meet" version="1.0"><defs><g/><clipPath id="82ff7b3b6d"><path d="M 120.839844 130 L 181 130 L 181 210.613281 L 120.839844 210.613281 Z M 120.839844 130 " clip-rule="nonzero"/></clipPath><clipPath id="31aa7dcfa1"><path d="M 194 130 L 254.339844 130 L 254.339844 210.613281 L 194 210.613281 Z M 194 130 " clip-rule="nonzero"/></clipPath><clipPath id="120fb6abdb"><path d="M 154 77.113281 L 221 77.113281 L 221 158 L 154 158 Z M 154 77.113281 " clip-rule="nonzero"/></clipPath></defs><rect x="-37.5" width="450" fill="#ffffff" y="-37.499999" height="449.999989" fill-opacity="1"/><rect x="-37.5" width="450" fill="#fffff9" y="-37.499999" height="449.999989" fill-opacity="1"/><g clip-path="url(#82ff7b3b6d)"><path fill="#de0f3f" d="M 160.128906 159.1875 C 159.664062 158.726562 159.15625 158.316406 158.613281 157.957031 C 158.066406 157.59375 157.492188 157.289062 156.886719 157.039062 C 156.28125 156.789062 155.65625 156.601562 155.015625 156.476562 C 154.371094 156.347656 153.722656 156.285156 153.070312 156.285156 C 152.414062 156.285156 151.765625 156.347656 151.125 156.476562 C 150.484375 156.601562 149.859375 156.789062 149.253906 157.039062 C 148.648438 157.289062 148.074219 157.59375 147.527344 157.957031 C 146.980469 158.316406 146.476562 158.726562 146.011719 159.1875 C 145.375 159.824219 145.011719 160.613281 144.589844 161.339844 L 140.863281 158.703125 L 140.863281 140.4375 C 140.863281 139.78125 140.796875 139.132812 140.671875 138.488281 C 140.542969 137.84375 140.351562 137.21875 140.101562 136.613281 C 139.851562 136.007812 139.542969 135.429688 139.175781 134.886719 C 138.8125 134.339844 138.398438 133.835938 137.933594 133.371094 C 137.46875 132.90625 136.964844 132.492188 136.417969 132.128906 C 135.875 131.761719 135.296875 131.453125 134.691406 131.203125 C 134.085938 130.953125 133.460938 130.761719 132.816406 130.636719 C 132.171875 130.507812 131.523438 130.441406 130.867188 130.441406 C 130.210938 130.441406 129.558594 130.507812 128.917969 130.636719 C 128.273438 130.761719 127.648438 130.953125 127.039062 131.203125 C 126.433594 131.453125 125.859375 131.761719 125.3125 132.128906 C 124.765625 132.492188 124.261719 132.90625 123.796875 133.371094 C 123.332031 133.835938 122.917969 134.339844 122.554688 134.886719 C 122.191406 135.429688 121.882812 136.007812 121.632812 136.613281 C 121.378906 137.21875 121.191406 137.84375 121.0625 138.488281 C 120.933594 139.132812 120.871094 139.78125 120.871094 140.4375 L 120.871094 170.640625 C 120.859375 172.105469 121.164062 173.503906 121.777344 174.832031 C 122.394531 176.164062 123.261719 177.300781 124.382812 178.242188 L 154.191406 205.230469 L 154.191406 207.078125 C 154.191406 207.523438 154.273438 207.945312 154.445312 208.355469 C 154.613281 208.761719 154.855469 209.125 155.167969 209.4375 C 155.480469 209.75 155.839844 209.988281 156.246094 210.160156 C 156.65625 210.328125 157.082031 210.410156 157.523438 210.410156 C 157.964844 210.410156 158.390625 210.328125 158.796875 210.160156 C 159.207031 209.988281 159.566406 209.75 159.878906 209.4375 C 160.191406 209.125 160.433594 208.761719 160.601562 208.355469 C 160.769531 207.945312 160.855469 207.523438 160.855469 207.078125 L 160.855469 203.746094 C 160.855469 202.757812 160.492188 201.933594 159.765625 201.265625 L 128.746094 173.214844 C 128.359375 172.898438 128.058594 172.515625 127.84375 172.066406 C 127.632812 171.613281 127.527344 171.136719 127.535156 170.640625 L 127.535156 140.4375 C 127.535156 139.996094 127.617188 139.570312 127.789062 139.164062 C 127.957031 138.753906 128.199219 138.394531 128.511719 138.082031 C 128.824219 137.769531 129.183594 137.53125 129.589844 137.359375 C 130 137.191406 130.425781 137.105469 130.867188 137.105469 C 131.308594 137.105469 131.734375 137.191406 132.140625 137.359375 C 132.550781 137.53125 132.910156 137.769531 133.222656 138.082031 C 133.535156 138.394531 133.777344 138.753906 133.945312 139.164062 C 134.113281 139.570312 134.199219 139.996094 134.199219 140.4375 L 134.199219 160.429688 C 134.195312 160.976562 134.320312 161.488281 134.574219 161.96875 C 134.824219 162.453125 135.175781 162.847656 135.621094 163.15625 L 143.589844 168.792969 C 143.988281 170.558594 144.8125 172.09375 146.074219 173.394531 L 158.945312 185.574219 C 159.269531 185.875 159.636719 186.109375 160.046875 186.265625 C 160.460938 186.421875 160.886719 186.496094 161.332031 186.484375 C 161.773438 186.46875 162.195312 186.375 162.597656 186.191406 C 163.003906 186.011719 163.355469 185.761719 163.660156 185.4375 C 163.960938 185.117188 164.191406 184.75 164.351562 184.335938 C 164.507812 183.921875 164.578125 183.496094 164.566406 183.054688 C 164.554688 182.613281 164.457031 182.1875 164.273438 181.785156 C 164.09375 181.382812 163.84375 181.03125 163.519531 180.726562 L 150.707031 168.640625 C 150.394531 168.328125 150.148438 167.964844 149.980469 167.558594 C 149.808594 167.148438 149.722656 166.722656 149.722656 166.277344 C 149.722656 165.832031 149.808594 165.40625 149.980469 164.996094 C 150.148438 164.589844 150.394531 164.226562 150.707031 163.914062 C 151.027344 163.601562 151.398438 163.363281 151.816406 163.199219 C 152.230469 163.03125 152.664062 162.953125 153.113281 162.957031 C 153.5625 162.960938 153.992188 163.054688 154.402344 163.230469 C 154.816406 163.40625 155.179688 163.65625 155.492188 163.976562 L 173.214844 180.816406 C 173.863281 181.472656 174.1875 182.257812 174.183594 183.179688 L 174.183594 207.078125 C 174.183594 207.523438 174.265625 207.945312 174.4375 208.355469 C 174.605469 208.761719 174.847656 209.125 175.160156 209.4375 C 175.472656 209.75 175.832031 209.988281 176.238281 210.160156 C 176.648438 210.328125 177.074219 210.410156 177.515625 210.410156 C 177.957031 210.410156 178.382812 210.328125 178.789062 210.160156 C 179.199219 209.988281 179.558594 209.75 179.871094 209.4375 C 180.183594 209.125 180.425781 208.761719 180.59375 208.355469 C 180.761719 207.945312 180.847656 207.523438 180.847656 207.078125 L 180.847656 183.179688 C 180.851562 181.84375 180.59375 180.554688 180.078125 179.320312 C 179.566406 178.085938 178.832031 177 177.878906 176.0625 Z M 160.128906 159.1875 " fill-opacity="1" fill-rule="nonzero"/></g><g clip-path="url(#31aa7dcfa1)"><path fill="#de0f3f" d="M 244.15625 130.441406 C 243.5 130.441406 242.851562 130.507812 242.207031 130.632812 C 241.5625 130.761719 240.9375 130.953125 240.332031 131.203125 C 239.722656 131.453125 239.148438 131.761719 238.601562 132.128906 C 238.058594 132.492188 237.550781 132.90625 237.085938 133.371094 C 236.625 133.835938 236.210938 134.339844 235.84375 134.886719 C 235.480469 135.429688 235.171875 136.007812 234.921875 136.613281 C 234.667969 137.21875 234.480469 137.84375 234.351562 138.488281 C 234.222656 139.132812 234.160156 139.78125 234.160156 140.4375 L 234.160156 158.703125 L 230.433594 161.339844 C 230.011719 160.582031 229.648438 159.824219 229.011719 159.1875 C 225.101562 155.3125 218.773438 155.3125 214.957031 159.128906 L 197.082031 176.121094 C 196.148438 177.058594 195.425781 178.136719 194.921875 179.359375 C 194.417969 180.582031 194.167969 181.855469 194.175781 183.179688 L 194.175781 207.078125 C 194.175781 207.523438 194.261719 207.945312 194.429688 208.355469 C 194.597656 208.761719 194.839844 209.125 195.152344 209.4375 C 195.464844 209.75 195.824219 209.988281 196.230469 210.160156 C 196.640625 210.328125 197.066406 210.410156 197.507812 210.410156 C 197.949219 210.410156 198.375 210.328125 198.78125 210.160156 C 199.191406 209.988281 199.550781 209.75 199.863281 209.4375 C 200.175781 209.125 200.417969 208.761719 200.585938 208.355469 C 200.753906 207.945312 200.839844 207.523438 200.839844 207.078125 L 200.839844 183.179688 C 200.828125 182.289062 201.132812 181.523438 201.75 180.878906 L 219.589844 163.914062 C 219.902344 163.601562 220.261719 163.359375 220.671875 163.1875 C 221.082031 163.015625 221.507812 162.933594 221.953125 162.933594 C 222.394531 162.933594 222.824219 163.015625 223.230469 163.1875 C 223.640625 163.359375 224.003906 163.601562 224.316406 163.914062 C 224.625 164.21875 224.863281 164.570312 225.03125 164.96875 C 225.203125 165.371094 225.289062 165.785156 225.296875 166.21875 C 225.300781 166.652344 225.222656 167.070312 225.066406 167.476562 C 224.90625 167.878906 224.675781 168.238281 224.375 168.550781 L 211.5 180.726562 C 211.179688 181.03125 210.929688 181.382812 210.746094 181.785156 C 210.566406 182.1875 210.46875 182.613281 210.457031 183.054688 C 210.441406 183.496094 210.515625 183.921875 210.671875 184.335938 C 210.828125 184.75 211.058594 185.117188 211.363281 185.4375 C 211.667969 185.761719 212.019531 186.011719 212.421875 186.191406 C 212.828125 186.375 213.25 186.46875 213.691406 186.484375 C 214.132812 186.496094 214.5625 186.421875 214.972656 186.265625 C 215.386719 186.109375 215.753906 185.875 216.074219 185.574219 L 229.011719 173.335938 C 230.253906 172.039062 231.070312 170.515625 231.464844 168.761719 L 239.398438 163.15625 C 239.847656 162.847656 240.195312 162.453125 240.449219 161.96875 C 240.699219 161.488281 240.824219 160.976562 240.824219 160.429688 L 240.824219 140.4375 C 240.824219 139.996094 240.910156 139.570312 241.078125 139.164062 C 241.246094 138.753906 241.488281 138.394531 241.800781 138.082031 C 242.113281 137.769531 242.472656 137.53125 242.882812 137.359375 C 243.289062 137.191406 243.714844 137.105469 244.15625 137.105469 C 244.597656 137.105469 245.023438 137.191406 245.429688 137.359375 C 245.839844 137.53125 246.199219 137.769531 246.511719 138.082031 C 246.824219 138.394531 247.066406 138.753906 247.234375 139.164062 C 247.402344 139.570312 247.488281 139.996094 247.488281 140.4375 L 247.488281 170.640625 C 247.488281 171.160156 247.371094 171.65625 247.144531 172.121094 C 246.914062 172.589844 246.597656 172.984375 246.1875 173.304688 L 215.257812 201.265625 C 214.53125 201.933594 214.167969 202.757812 214.167969 203.746094 L 214.167969 207.078125 C 214.167969 207.523438 214.253906 207.945312 214.421875 208.355469 C 214.589844 208.761719 214.832031 209.125 215.144531 209.4375 C 215.457031 209.75 215.816406 209.988281 216.222656 210.160156 C 216.632812 210.328125 217.058594 210.410156 217.5 210.410156 C 217.941406 210.410156 218.367188 210.328125 218.773438 210.160156 C 219.183594 209.988281 219.542969 209.75 219.855469 209.4375 C 220.167969 209.125 220.410156 208.761719 220.578125 208.355469 C 220.746094 207.945312 220.832031 207.523438 220.832031 207.078125 L 220.832031 205.230469 L 250.546875 178.332031 C 251.691406 177.382812 252.578125 176.238281 253.210938 174.890625 C 253.84375 173.542969 254.15625 172.125 254.152344 170.640625 L 254.152344 140.4375 C 254.152344 139.78125 254.089844 139.132812 253.960938 138.488281 C 253.832031 137.84375 253.640625 137.21875 253.390625 136.613281 C 253.140625 136.007812 252.832031 135.429688 252.46875 134.886719 C 252.101562 134.339844 251.6875 133.835938 251.222656 133.371094 C 250.761719 132.90625 250.253906 132.492188 249.710938 132.128906 C 249.164062 131.761719 248.585938 131.453125 247.980469 131.203125 C 247.375 130.953125 246.75 130.761719 246.105469 130.636719 C 245.460938 130.507812 244.8125 130.441406 244.15625 130.441406 Z M 244.15625 130.441406 " fill-opacity="1" fill-rule="nonzero"/></g><g clip-path="url(#120fb6abdb)"><path fill="#de0f3f" d="M 220.832031 123.777344 C 220.832031 99.242188 193.660156 77.128906 187.511719 77.128906 C 181.363281 77.128906 154.191406 99.242188 154.191406 123.777344 C 154.191406 124.871094 154.242188 125.957031 154.351562 127.042969 C 154.457031 128.128906 154.617188 129.207031 154.832031 130.277344 C 155.042969 131.347656 155.308594 132.40625 155.625 133.449219 C 155.941406 134.496094 156.308594 135.523438 156.726562 136.53125 C 157.144531 137.539062 157.609375 138.523438 158.125 139.484375 C 158.640625 140.449219 159.199219 141.382812 159.804688 142.289062 C 160.414062 143.199219 161.0625 144.074219 161.753906 144.917969 C 162.445312 145.761719 163.179688 146.566406 163.949219 147.339844 C 164.722656 148.113281 165.527344 148.84375 166.371094 149.535156 C 167.214844 150.226562 168.09375 150.878906 169 151.484375 C 169.90625 152.089844 170.839844 152.648438 171.804688 153.164062 C 172.765625 153.679688 173.75 154.144531 174.761719 154.5625 C 175.769531 154.980469 176.792969 155.347656 177.839844 155.664062 C 178.882812 155.980469 179.941406 156.246094 181.011719 156.457031 C 182.082031 156.671875 183.160156 156.832031 184.246094 156.9375 C 185.332031 157.046875 186.417969 157.097656 187.511719 157.097656 C 188.601562 157.097656 189.691406 157.046875 190.777344 156.9375 C 191.863281 156.832031 192.941406 156.671875 194.011719 156.457031 C 195.082031 156.246094 196.140625 155.980469 197.183594 155.664062 C 198.226562 155.347656 199.253906 154.980469 200.261719 154.5625 C 201.269531 154.144531 202.257812 153.679688 203.21875 153.164062 C 204.179688 152.648438 205.117188 152.089844 206.023438 151.484375 C 206.929688 150.878906 207.804688 150.226562 208.648438 149.535156 C 209.492188 148.84375 210.300781 148.113281 211.074219 147.339844 C 211.84375 146.566406 212.574219 145.761719 213.269531 144.917969 C 213.960938 144.074219 214.609375 143.199219 215.214844 142.289062 C 215.824219 141.382812 216.382812 140.449219 216.898438 139.484375 C 217.410156 138.523438 217.878906 137.539062 218.296875 136.53125 C 218.714844 135.523438 219.082031 134.496094 219.398438 133.449219 C 219.714844 132.40625 219.980469 131.347656 220.191406 130.277344 C 220.40625 129.207031 220.5625 128.128906 220.671875 127.042969 C 220.777344 125.957031 220.832031 124.871094 220.832031 123.777344 Z M 187.511719 150.433594 C 186.636719 150.433594 185.769531 150.390625 184.898438 150.304688 C 184.03125 150.21875 183.167969 150.089844 182.3125 149.917969 C 181.457031 149.746094 180.613281 149.535156 179.777344 149.28125 C 178.941406 149.027344 178.121094 148.730469 177.316406 148.398438 C 176.507812 148.0625 175.722656 147.691406 174.953125 147.277344 C 174.183594 146.867188 173.433594 146.417969 172.707031 145.933594 C 171.984375 145.449219 171.28125 144.929688 170.609375 144.375 C 169.933594 143.820312 169.289062 143.234375 168.671875 142.617188 C 168.054688 142 167.46875 141.355469 166.914062 140.679688 C 166.359375 140.007812 165.839844 139.304688 165.355469 138.582031 C 164.871094 137.855469 164.421875 137.109375 164.011719 136.339844 C 163.597656 135.570312 163.226562 134.78125 162.890625 133.976562 C 162.558594 133.167969 162.261719 132.347656 162.007812 131.511719 C 161.753906 130.679688 161.542969 129.832031 161.371094 128.976562 C 161.199219 128.121094 161.070312 127.257812 160.984375 126.390625 C 160.898438 125.523438 160.855469 124.652344 160.855469 123.777344 C 160.855469 103.363281 183.027344 86.097656 187.511719 83.945312 C 191.996094 86.097656 214.167969 103.363281 214.167969 123.777344 C 214.167969 124.652344 214.121094 125.523438 214.035156 126.390625 C 213.949219 127.257812 213.820312 128.121094 213.652344 128.976562 C 213.480469 129.832031 213.265625 130.679688 213.011719 131.511719 C 212.757812 132.347656 212.464844 133.167969 212.128906 133.976562 C 211.796875 134.78125 211.421875 135.570312 211.011719 136.339844 C 210.597656 137.109375 210.152344 137.855469 209.664062 138.582031 C 209.179688 139.304688 208.660156 140.007812 208.109375 140.679688 C 207.554688 141.355469 206.96875 142 206.351562 142.617188 C 205.734375 143.234375 205.089844 143.820312 204.414062 144.375 C 203.738281 144.929688 203.039062 145.449219 202.3125 145.933594 C 201.589844 146.417969 200.839844 146.867188 200.070312 147.277344 C 199.300781 147.691406 198.511719 148.0625 197.707031 148.398438 C 196.902344 148.730469 196.082031 149.027344 195.246094 149.28125 C 194.410156 149.535156 193.566406 149.746094 192.710938 149.917969 C 191.855469 150.089844 190.992188 150.21875 190.121094 150.304688 C 189.253906 150.390625 188.382812 150.433594 187.511719 150.433594 Z M 187.511719 150.433594 " fill-opacity="1" fill-rule="nonzero"/></g><path fill="#de0f3f" d="M 197.507812 120.445312 L 190.84375 120.445312 L 190.84375 113.78125 C 190.84375 113.339844 190.757812 112.914062 190.589844 112.507812 C 190.421875 112.097656 190.179688 111.738281 189.867188 111.425781 C 189.554688 111.113281 189.195312 110.875 188.785156 110.703125 C 188.378906 110.535156 187.953125 110.449219 187.511719 110.449219 C 187.070312 110.449219 186.644531 110.535156 186.234375 110.703125 C 185.828125 110.875 185.46875 111.113281 185.15625 111.425781 C 184.84375 111.738281 184.601562 112.097656 184.433594 112.507812 C 184.261719 112.914062 184.179688 113.339844 184.179688 113.78125 L 184.179688 120.445312 L 177.515625 120.445312 C 177.074219 120.445312 176.648438 120.53125 176.238281 120.699219 C 175.832031 120.871094 175.472656 121.109375 175.160156 121.421875 C 174.847656 121.734375 174.605469 122.09375 174.4375 122.503906 C 174.265625 122.910156 174.183594 123.335938 174.183594 123.777344 C 174.183594 124.21875 174.265625 124.644531 174.4375 125.054688 C 174.605469 125.460938 174.847656 125.820312 175.160156 126.132812 C 175.472656 126.445312 175.832031 126.6875 176.238281 126.855469 C 176.648438 127.027344 177.074219 127.109375 177.515625 127.109375 L 184.179688 127.109375 L 184.179688 133.773438 C 184.179688 134.214844 184.261719 134.640625 184.433594 135.050781 C 184.601562 135.457031 184.84375 135.820312 185.15625 136.132812 C 185.46875 136.441406 185.828125 136.683594 186.234375 136.851562 C 186.644531 137.023438 187.070312 137.105469 187.511719 137.105469 C 187.953125 137.105469 188.378906 137.023438 188.785156 136.851562 C 189.195312 136.683594 189.554688 136.441406 189.867188 136.132812 C 190.179688 135.820312 190.421875 135.457031 190.589844 135.050781 C 190.757812 134.640625 190.84375 134.214844 190.84375 133.773438 L 190.84375 127.109375 L 197.507812 127.109375 C 197.949219 127.109375 198.375 127.027344 198.78125 126.855469 C 199.191406 126.6875 199.550781 126.445312 199.863281 126.132812 C 200.175781 125.820312 200.417969 125.460938 200.585938 125.054688 C 200.753906 124.644531 200.839844 124.21875 200.839844 123.777344 C 200.839844 123.335938 200.753906 122.910156 200.585938 122.503906 C 200.417969 122.09375 200.175781 121.734375 199.863281 121.421875 C 199.550781 121.109375 199.191406 120.871094 198.78125 120.699219 C 198.375 120.53125 197.949219 120.445312 197.507812 120.445312 Z M 197.507812 120.445312 " fill-opacity="1" fill-rule="nonzero"/><g fill="#de0f3f" fill-opacity="1"><g transform="translate(123.18359, 277.093772)"><g><path d="M 2.71875 -34.90625 L 11.375 -34.90625 C 14.394531 -34.90625 16.585938 -34.085938 17.953125 -32.453125 C 19.316406 -30.816406 20 -28.414062 20 -25.25 C 20 -22.40625 19.265625 -20.191406 17.796875 -18.609375 C 16.328125 -17.035156 14.203125 -16.25 11.421875 -16.25 L 7.578125 -16.25 L 7.578125 0 L 2.71875 0 Z M 9.828125 -19.734375 C 11.265625 -19.734375 12.375 -19.890625 13.15625 -20.203125 C 13.945312 -20.523438 14.515625 -21.070312 14.859375 -21.84375 C 15.210938 -22.625 15.390625 -23.742188 15.390625 -25.203125 C 15.390625 -26.984375 15.257812 -28.289062 15 -29.125 C 14.738281 -29.957031 14.226562 -30.546875 13.46875 -30.890625 C 12.707031 -31.242188 11.507812 -31.421875 9.875 -31.421875 L 7.578125 -31.421875 L 7.578125 -19.734375 Z M 9.828125 -19.734375 "/></g></g></g><g fill="#de0f3f" fill-opacity="1"><g transform="translate(143.871519, 277.093772)"><g><path d="M 2.71875 -34.90625 L 7.578125 -34.90625 L 7.578125 -3.484375 L 16.5 -3.484375 L 16.5 0 L 2.71875 0 Z M 2.71875 -34.90625 "/></g></g></g><g fill="#de0f3f" fill-opacity="1"><g transform="translate(160.982161, 277.093772)"><g><path d="M 8.234375 -34.90625 L 12.921875 -34.90625 L 20.390625 0 L 15.765625 0 L 14.171875 -8.796875 L 7.0625 -8.796875 L 5.390625 0 L 0.8125 0 Z M 13.53125 -12.28125 L 10.59375 -28.015625 L 7.71875 -12.28125 Z M 13.53125 -12.28125 "/></g></g></g><g fill="#de0f3f" fill-opacity="1"><g transform="translate(182.187277, 277.093772)"><g><path d="M 10.953125 0.390625 C 8.015625 0.390625 5.773438 -0.515625 4.234375 -2.328125 C 2.703125 -4.140625 1.851562 -6.625 1.6875 -9.78125 L 5.984375 -10.953125 C 6.128906 -8.703125 6.566406 -6.890625 7.296875 -5.515625 C 8.035156 -4.140625 9.253906 -3.453125 10.953125 -3.453125 C 12.210938 -3.453125 13.164062 -3.800781 13.8125 -4.5 C 14.457031 -5.207031 14.78125 -6.222656 14.78125 -7.546875 C 14.78125 -8.984375 14.476562 -10.175781 13.875 -11.125 C 13.269531 -12.070312 12.304688 -13.117188 10.984375 -14.265625 L 5.125 -19.4375 C 3.945312 -20.46875 3.09375 -21.578125 2.5625 -22.765625 C 2.03125 -23.960938 1.765625 -25.425781 1.765625 -27.15625 C 1.765625 -29.707031 2.492188 -31.6875 3.953125 -33.09375 C 5.421875 -34.5 7.421875 -35.203125 9.953125 -35.203125 C 12.710938 -35.203125 14.796875 -34.46875 16.203125 -33 C 17.609375 -31.539062 18.457031 -29.273438 18.75 -26.203125 L 14.609375 -25.078125 C 14.460938 -27.117188 14.066406 -28.691406 13.421875 -29.796875 C 12.773438 -30.898438 11.617188 -31.453125 9.953125 -31.453125 C 8.722656 -31.453125 7.773438 -31.128906 7.109375 -30.484375 C 6.453125 -29.835938 6.125 -28.882812 6.125 -27.625 C 6.125 -26.59375 6.296875 -25.722656 6.640625 -25.015625 C 6.984375 -24.304688 7.570312 -23.59375 8.40625 -22.875 L 14.3125 -17.71875 C 15.832031 -16.363281 17.046875 -14.894531 17.953125 -13.3125 C 18.859375 -11.738281 19.3125 -9.941406 19.3125 -7.921875 C 19.3125 -5.367188 18.535156 -3.34375 16.984375 -1.84375 C 15.429688 -0.351562 13.421875 0.390625 10.953125 0.390625 Z M 10.953125 0.390625 "/></g></g></g><g fill="#de0f3f" fill-opacity="1"><g transform="translate(202.573495, 277.093772)"><g><path d="M 3.28125 -34.90625 L 8.0625 -34.90625 L 14.21875 -6.59375 L 20.421875 -34.90625 L 25.171875 -34.90625 L 25.8125 0 L 21.890625 0 L 21.5 -25.34375 L 15.59375 0 L 12.84375 0 L 6.984375 -25.34375 L 6.59375 0 L 2.625 0 Z M 3.28125 -34.90625 "/></g></g></g><g fill="#de0f3f" fill-opacity="1"><g transform="translate(231.019392, 277.093772)"><g><path d="M 7.84375 -18.265625 L 0.6875 -34.90625 L 5.21875 -34.90625 L 10.515625 -22.578125 L 15.34375 -34.90625 L 19.859375 -34.90625 L 12.546875 -17.890625 L 20.203125 0 L 15.6875 0 L 10 -13.140625 L 5.078125 0 L 0.5625 0 Z M 7.84375 -18.265625 "/></g></g></g></svg>